<?xml version="1.0" encoding="iso-8859-1"?>
<!-- Generator: Adobe Illustrator 18.0.0, SVG Export Plug-In . SVG Version: 6.00 Build 0)  -->
<!DOCTYPE svg PUBLIC "-//W3C//DTD SVG 1.1//EN" "http://www.w3.org/Graphics/SVG/1.1/DTD/svg11.dtd">
<svg version="1.1" id="Capa_1" xmlns="http://www.w3.org/2000/svg" xmlns:xlink="http://www.w3.org/1999/xlink" x="0px" y="0px"
	 viewBox="0 0 486.958 486.958" style="enable-background:new 0 0 486.958 486.958;" xml:space="preserve">
<path id="XMLID_11_" d="M486.957,243.466c0-36.816-25.553-67.782-59.853-76.077c7.45-12.155,11.431-26.166,11.438-40.78
	c0.008-20.92-8.127-40.566-22.901-55.333C400.866,56.503,381.22,48.36,360.308,48.36c-14.615,0-28.624,3.979-40.788,11.43
	C311.193,25.522,280.252,0,243.459,0c-36.792,0-67.741,25.521-76.069,59.79c-12.147-7.442-26.141-11.415-40.749-11.415
	c-20.903,0-40.558,8.143-55.348,22.926c-14.79,14.782-22.927,34.437-22.927,55.34c0.008,14.615,3.989,28.618,11.44,40.765
	C25.53,175.717,0,206.667,0,243.459c-0.007,20.905,8.128,40.558,22.91,55.333c10.325,10.325,23.029,17.408,36.88,20.737
	c-7.442,12.148-11.415,26.133-11.415,40.725c0,20.911,8.151,40.574,22.943,55.339c14.765,14.791,34.412,22.943,55.315,22.943
	c14.608,0,28.602-3.981,40.749-11.415c8.303,34.293,39.26,59.837,76.077,59.837c36.808,0,67.759-25.545,76.07-59.831
	c12.162,7.444,26.172,11.423,40.796,11.423c20.895,0,40.542-8.127,55.316-22.902c25.998-26.021,29.826-65.974,11.463-96.105
	c13.859-3.327,26.58-10.419,36.919-20.751C478.821,284.008,486.966,264.355,486.957,243.466z M314.274,114.732
	c8.271-14.265,12.379-19.032,13.732-20.393c17.273-17.244,47.34-17.258,64.582,0c8.612,8.604,13.357,20.059,13.349,32.255
	c-0.007,12.203-4.759,23.682-13.421,32.343c-1.345,1.345-6.017,5.388-20.411,13.746l-55.172,32.033
	c-7.841-14.822-19.893-26.875-34.723-34.706L314.274,114.732z M243.459,32.606c25.171,0,45.652,20.482,45.652,45.652
	c0,1.919-0.461,8.104-4.703,24.112l-16.375,61.789c-7.809-2.421-15.946-4.1-24.55-4.1c-8.645,0-16.82,1.687-24.661,4.131
	l-16.327-61.834c-4.083-15.476-4.695-21.74-4.695-24.097C197.799,53.088,218.28,32.606,243.459,32.606z M94.347,94.354
	c17.256-17.242,47.324-17.25,64.582,0.008c1.663,1.665,5.667,6.52,13.715,20.355l32.159,55.268
	c-14.87,7.848-26.962,19.939-34.81,34.817l-55.237-32.142c-14.329-8.336-19.025-12.387-20.387-13.749
	c-8.637-8.621-13.389-20.083-13.397-32.279C80.972,114.447,85.725,102.982,94.347,94.354z M45.964,275.738
	c-8.621-8.621-13.365-20.075-13.358-32.271c0-25.169,20.482-45.652,45.652-45.652c2.372,0,8.67,0.613,24.136,4.697l61.804,16.327
	c-2.436,7.84-4.123,16.008-4.123,24.645c0,8.613,1.679,16.764,4.107,24.581l-61.804,16.335c-15.483,4.09-21.771,4.703-24.135,4.703
	C66.047,289.103,54.585,284.358,45.964,275.738z M172.661,372.129c-8.351,14.375-12.387,19.058-13.748,20.411
	c-17.242,17.258-47.285,17.272-64.543,0c-8.637-8.629-13.389-20.093-13.389-32.28c0-12.188,4.752-23.65,13.397-32.279
	c1.671-1.671,6.544-5.683,20.37-13.732l55.213-32.167c7.834,14.878,19.909,26.978,34.771,34.842L172.661,372.129z M243.459,454.352
	c-25.178,0-45.659-20.483-45.659-45.652c0-2.372,0.613-8.662,4.72-24.216l16.303-61.732c7.85,2.444,16.016,4.131,24.661,4.131
	c8.629,0,16.789-1.688,24.622-4.115l16.286,61.699c4.107,15.563,4.72,21.86,4.72,24.232
	C289.111,433.87,268.63,454.352,243.459,454.352z M392.58,392.604c-17.234,17.217-47.348,17.17-64.542,0
	c-1.37-1.378-5.452-6.122-13.787-20.483l-32.032-55.188c14.829-7.842,26.89-19.893,34.723-34.723l55.18,32.04
	c14.378,8.351,19.105,12.418,20.45,13.765C410.362,345.828,410.362,374.796,392.58,392.604z M440.979,275.729
	c-8.629,8.629-20.108,13.381-32.312,13.381c-1.911,0-8.088-0.461-24.191-4.72l-61.685-16.319c2.429-7.817,4.108-15.969,4.108-24.589
	c0-8.597-1.671-16.733-4.092-24.534l61.676-16.413c16.009-4.258,22.273-4.721,24.224-4.721c25.17,0,45.645,20.483,45.645,45.661
	C454.36,255.654,449.608,267.109,440.979,275.729z"/>
<g>
</g>
<g>
</g>
<g>
</g>
<g>
</g>
<g>
</g>
<g>
</g>
<g>
</g>
<g>
</g>
<g>
</g>
<g>
</g>
<g>
</g>
<g>
</g>
<g>
</g>
<g>
</g>
<g>
</g>
</svg>
